<?xml version="1.0" encoding="utf-8"?>
<!-- Generator: Adobe Illustrator 24.0.1, SVG Export Plug-In . SVG Version: 6.00 Build 0)  -->
<svg version="1.1" id="圖層_1" xmlns="http://www.w3.org/2000/svg" xmlns:xlink="http://www.w3.org/1999/xlink" x="0px" y="0px"
	 viewBox="0 0 354 367" style="enable-background:new 0 0 354 367;" xml:space="preserve">
<style type="text/css">
	.st0{fill-rule:evenodd;clip-rule:evenodd;}
</style>
<title>title</title>
<desc>Created with Sketch.</desc>
<image style="overflow:visible;enable-background:new    ;" width="887" height="880" id="Image-1" xlink:href="C3EACAA54D8D272E.png"  transform="matrix(0.1414 0 0 0.1414 181.2886 173.2834)">
</image>
<image style="overflow:visible;enable-background:new    ;" width="2024" height="1722" id="Image-2" xlink:href="C3EACAA54D8D2728.png"  transform="matrix(0.1413 0 0 0.1413 1.049 -0.1214)">
</image>
<path d="M65.9,277.1c0.2,0.1,0.3,0.4,0.5,0.4c4.1,1.2,7,3.7,8.6,7.7c0.9,2.2,1.3,4.5,1.4,6.9c0.1,4.4-0.4,8.8-1.4,13.1
	c-1,4.2-2.4,8.2-4.6,11.9c-2.1,3.6-5,6.5-8.7,8.3c-1.8,0.9-3.7,1.3-5.7,1.3s-4,0-5.9-0.6c-3.3-1.1-5.6-3.1-7.1-6.2
	c-1.4-2.7-1.9-5.6-1.9-8.6c0-2.7,0.1-5.5,0.5-8.1c0.3-2.5,1-4.9,1.7-7.3c0.8-3,2-5.9,3.6-8.6c2.3-3.9,5.2-7.1,9.4-9
	c0.7-0.3,1.4-0.5,2-0.7c0.2-0.1,0.4-0.3,0.6-0.4C61.2,277.1,63.5,277.1,65.9,277.1z M73.6,294c0-2.6-0.2-4.9-0.9-7.1
	c-0.9-2.9-2.6-5.2-5.5-6.4c-2.1-0.9-4.3-1-6.6-0.8c-3.9,0.4-6.7,2.6-9.2,5.4c-3.9,4.6-5.8,10.1-6.8,15.9c-0.4,2.5-0.6,5-0.8,7.4
	c-0.3,3.2,0.1,6.2,1.2,9.2c0.9,2.5,2.5,4.5,5,5.7c3.3,1.6,6.7,1.2,9.9-0.2c2.8-1.2,5-3.3,6.8-5.8c2.2-3.2,3.7-6.7,4.8-10.4
	C72.9,302.6,73.5,298.2,73.6,294z"/>
<path d="M103.4,277.1c0.2,0.2,0.4,0.4,0.7,0.5c2.2,0.7,4.2,1.6,5.8,3.3c2,2,3,4.4,3.3,7.2c0.3,3.1-0.1,6-1.8,8.7
	c-1.5,2.5-3.6,4.5-6,6c-3.2,1.9-6.5,3.7-9.7,5.5c-3.6,1.9-7.1,3.8-10.3,6.5c-2.5,2.1-4.7,4.6-5.8,7.7c-0.3,0.8-0.2,1,0.7,1
	c8.8,0,17.6,0,26.4,0c0.2,0,0.4,0,0.6,0c0.1,0,0.4,0.1,0.4,0.2c0,0.6,0,1.3-0.1,1.9c0,0.2-0.4,0.4-0.7,0.4c-0.4,0.1-0.7,0-1.1,0
	c-9.6,0-19.2,0-28.7,0c-1,0-1.2-0.2-1-1.3c0.9-5.9,4.4-10.1,9.1-13.2c3.7-2.4,7.5-4.5,11.3-6.7c3.1-1.7,6.2-3.3,8.9-5.6
	c2.1-1.8,3.9-3.8,4.6-6.5c1.6-6.3-1.8-12.5-9-12.9c-1.6-0.1-3.3,0-4.9,0.4c-3.9,0.9-6.6,3.4-8.3,6.9c-0.9,1.9-1.5,3.9-1.7,6
	c-0.1,0.7-0.3,1-1.1,0.9c-1.7,0-2,0.2-1.7-1.9c0.8-6.6,3.9-11.4,10.2-13.9c0.6-0.2,1.2-0.3,1.8-0.6c0.2-0.1,0.4-0.3,0.6-0.4
	C98.4,277.1,100.9,277.1,103.4,277.1z"/>
<path d="M141.3,277.1c0.2,0.2,0.4,0.4,0.7,0.5c2.2,0.7,4.2,1.6,5.8,3.3c2,2,3,4.4,3.3,7.2c0.3,3.1-0.1,6-1.8,8.7
	c-1.5,2.5-3.6,4.5-6,6c-3.2,1.9-6.5,3.7-9.7,5.5c-3.6,1.9-7.1,3.8-10.3,6.5c-2.5,2.1-4.7,4.6-5.8,7.7c-0.3,0.8-0.2,1,0.7,1
	c8.8,0,17.6,0,26.4,0c0.2,0,0.4,0,0.6,0c0.1,0,0.4,0.1,0.4,0.2c0,0.6,0,1.3-0.1,1.9c0,0.2-0.4,0.4-0.7,0.4c-0.4,0.1-0.7,0-1.1,0
	c-9.6,0-19.2,0-28.7,0c-1,0-1.2-0.2-1-1.3c0.9-5.9,4.4-10.1,9.1-13.2c3.7-2.4,7.5-4.5,11.3-6.7c3.1-1.7,6.2-3.3,8.9-5.6
	c2.1-1.8,3.9-3.8,4.6-6.5c1.6-6.3-1.8-12.5-9-12.9c-1.6-0.1-3.3,0-4.9,0.4c-3.9,0.9-6.6,3.4-8.3,6.9c-0.9,1.9-1.5,3.9-1.7,6
	c-0.1,0.7-0.3,1-1.1,0.9c-1.7,0-2,0.2-1.7-1.9c0.8-6.6,3.9-11.4,10.2-13.9c0.6-0.2,1.2-0.3,1.8-0.6c0.2-0.1,0.4-0.3,0.6-0.4
	C136.4,277.1,138.8,277.1,141.3,277.1z"/>
<path d="M27.7,277.1c0.3,0.2,0.5,0.4,0.8,0.5c2.2,0.7,4.3,1.6,6,3.3c2,2.1,3,4.6,3.2,7.4c0.2,3.3-0.4,6.3-2.3,9.1
	c-1.4,1.9-3,3.7-5,4.9c-3.4,2-6.8,4-10.2,5.9c-3.6,2-7.2,3.9-10.4,6.6c-2.5,2.2-4.7,4.6-5.7,7.8c-0.2,0.7-0.2,0.9,0.6,0.9
	c9,0,17.9,0,26.9,0c0.7,0,0.9,0.2,0.8,1c-0.1,0.3-0.1,0.6-0.2,0.9c-0.2,0.3-0.5,0.5-0.8,0.6c-0.4,0.1-0.8,0-1.2,0
	c-9.6,0-19.2,0-28.7,0c-0.8,0-1-0.2-0.9-1c0.4-4,2.3-7.3,5-10.1c2.9-3,6.5-5.1,10.1-7.1c3.7-2.1,7.5-4.1,11.2-6.3
	c2.7-1.6,5.1-3.6,6.7-6.4c1.2-2.1,1.6-4.4,1.3-6.9c-0.5-3.7-2.5-6.3-5.9-7.7c-1.5-0.6-3-0.7-4.6-0.8c-3.1-0.1-6,0.8-8.5,2.8
	c-2.1,1.7-3.6,3.8-4.3,6.4c-0.4,1.4-0.6,2.9-1,4.4c0,0,0,0,0,0.1c-0.1,0.8-0.7,0.7-2.2,0.6c-0.6,0-0.8-0.4-0.7-0.9
	c0.5-5,2.2-9.4,6.3-12.6c1.8-1.4,3.7-2.2,5.9-2.8c0.3-0.1,0.5-0.3,0.7-0.5C22.8,277.1,25.3,277.1,27.7,277.1z"/>
<path d="M78.1,345.3c-5.7,0-31,0-36.7,0c-0.2,0-0.5,0-0.7-0.1c-0.1-0.1-0.2-0.3-0.2-0.4s0.1-0.3,0.3-0.3c0.2-0.1,0.4-0.1,0.7-0.1
	c11,0,41.6,0,52.6,0c0.4,0,0.8-0.1,1.2-0.1c0.3,0,0.5,0.3,0.8,0.5c-0.3,0.2-0.5,0.5-0.8,0.5c-4.9,0-9.8,0-14.7,0
	C79.8,345.3,79,345.3,78.1,345.3L78.1,345.3z"/>
<image style="overflow:visible;enable-background:new    ;" width="929" height="568" id="Image-2_2_" xlink:href="C3EACAA54D8D2727.png"  transform="matrix(0.1487 0 0 0.1487 215.9999 282.19)">
</image>
<path id="Rectangle" class="st0" d="M179,277L179,277c0.4,0,0.8,0.4,0.8,0.8v73.1c0,0.4-0.4,0.8-0.8,0.8l0,0c-0.4,0-0.8-0.4-0.8-0.8
	v-73.1C178.2,277.4,178.6,277,179,277z"/>
<path d="M8.2,351.7H0.9l0.2-0.9l4.7-4.9c0.9-0.9,1.5-1.6,1.9-2.2c0.4-0.6,0.6-1.2,0.7-1.8c0.1-0.8,0.1-1.5-0.2-2s-0.8-0.7-1.5-0.7
	c-0.8,0-1.5,0.3-2,0.8c-0.6,0.6-0.9,1.3-1.1,2.2H2.4v-0.1c0.2-1.2,0.7-2.1,1.5-2.8c0.8-0.7,1.8-1.1,3-1.1c1,0,1.7,0.3,2.2,1
	s0.7,1.5,0.5,2.6c-0.1,0.8-0.5,1.5-1,2.2s-1.2,1.6-2.1,2.5l-3.9,4.1l0,0h5.8L8.2,351.7z"/>
<path d="M14.3,352.9h-1.1l8.1-14.4h1.1L14.3,352.9z"/>
<path d="M28.7,351c0.8,0,1.5-0.3,2.2-1c0.6-0.7,1.1-1.7,1.3-2.9l0.2-1.1h-0.1c-0.3,0.5-0.8,0.9-1.2,1.1s-1,0.4-1.6,0.4
	c-1,0-1.8-0.4-2.4-1.3c-0.5-0.8-0.7-1.9-0.4-3.3c0.2-1.4,0.8-2.5,1.6-3.4c0.8-0.9,1.8-1.3,2.8-1.3c1.1,0,2,0.4,2.5,1.3
	c0.6,0.8,0.7,2.1,0.4,3.6l-0.7,3.9c-0.3,1.6-0.9,2.8-1.7,3.6c-0.9,0.8-1.9,1.2-3.1,1.2c-0.4,0-0.8,0-1.2-0.1
	c-0.4-0.1-0.8-0.2-1.1-0.4l0.4-0.9c0.3,0.2,0.6,0.3,1,0.4S28.3,351,28.7,351z M29.7,346.6c0.6,0,1.2-0.2,1.7-0.6s0.9-0.9,1.2-1.5
	l0.3-1.4c0.2-1.3,0.2-2.3-0.2-2.9c-0.3-0.6-0.9-1-1.7-1c-0.7,0-1.3,0.4-1.9,1.1s-1,1.6-1.2,2.7s-0.1,1.9,0.2,2.6
	C28.4,346.2,28.9,346.6,29.7,346.6z"/>
<path d="M107.9,351.7h-7.4l0.2-0.9l4.7-4.9c0.9-0.9,1.5-1.6,1.9-2.2s0.6-1.2,0.7-1.8c0.1-0.8,0.1-1.5-0.2-2s-0.8-0.7-1.5-0.7
	c-0.8,0-1.5,0.3-2,0.8c-0.6,0.6-0.9,1.3-1.1,2.2h-1.1v-0.1c0.2-1.2,0.7-2.1,1.5-2.8c0.8-0.7,1.8-1.1,3-1.1c1,0,1.7,0.3,2.2,1
	s0.7,1.5,0.5,2.6c-0.1,0.8-0.5,1.5-1,2.2s-1.2,1.6-2.1,2.5l-3.9,4.1l0,0h5.8L107.9,351.7z"/>
<path d="M114,352.9h-1.1l8.1-14.4h1.1L114,352.9z"/>
<path d="M132.6,351.7h-7.4l0.2-0.9l4.7-4.9c0.9-0.9,1.5-1.6,1.9-2.2s0.6-1.2,0.7-1.8c0.1-0.8,0.1-1.5-0.2-2s-0.8-0.7-1.5-0.7
	c-0.8,0-1.5,0.3-2,0.8c-0.6,0.6-0.9,1.3-1.1,2.2h-1.1v-0.1c0.2-1.2,0.7-2.1,1.5-2.8c0.8-0.7,1.8-1.1,3-1.1c1,0,1.7,0.3,2.2,1
	s0.7,1.5,0.5,2.6c-0.1,0.8-0.5,1.5-1,2.2s-1.2,1.6-2.1,2.5l-3.9,4.1l0,0h5.8L132.6,351.7z"/>
<path d="M147,346.6c-0.4,1.8-1,3.2-1.9,4c-0.8,0.9-1.8,1.3-3,1.3c-1.1,0-1.8-0.5-2.3-1.4s-0.5-2.2-0.2-3.9l0.7-3
	c0.4-1.8,1-3.2,1.9-4c0.8-0.9,1.8-1.3,3-1.3c1.1,0,1.8,0.5,2.3,1.4s0.5,2.3,0.2,3.9L147,346.6z M146.5,343.4
	c0.3-1.4,0.3-2.5,0.1-3.2c-0.3-0.7-0.8-1-1.6-1s-1.4,0.4-2,1.1s-1.1,1.8-1.4,3.1l-0.7,3.3c-0.3,1.4-0.3,2.5-0.1,3.2
	c0.3,0.7,0.8,1,1.6,1c0.7,0,1.4-0.4,2-1.1s1.1-1.8,1.4-3.1L146.5,343.4z"/>
</svg>
